<?xml version="1.0" standalone="no"?>
<!DOCTYPE svg PUBLIC "-//W3C//DTD SVG 20010904//EN"
 "http://www.w3.org/TR/2001/REC-SVG-20010904/DTD/svg10.dtd">
<svg version="1.0" xmlns="http://www.w3.org/2000/svg"
 width="612.000000pt" height="434.000000pt" viewBox="0 0 612.000000 434.000000"
 preserveAspectRatio="xMidYMid meet">

<g transform="translate(0.000000,434.000000) scale(0.100000,-0.100000)"
fill="#000000" stroke="none">
<path d="M2710 3134 c-268 -49 -445 -156 -519 -313 -36 -77 -37 -194 -2 -261
37 -72 86 -125 159 -174 192 -127 468 -165 727 -100 97 25 233 96 302 159 169
153 172 364 7 515 -65 59 -207 131 -304 155 -63 16 -317 29 -370 19z m410
-338 c0 -2 -7 -6 -15 -10 -8 -3 -15 -1 -15 4 0 6 7 10 15 10 8 0 15 -2 15 -4z
m42 -18 c-7 -7 -12 -8 -12 -2 0 6 3 14 7 17 3 4 9 5 12 2 2 -3 -1 -11 -7 -17z
m48 6 c0 -8 -19 -13 -24 -6 -3 5 1 9 9 9 8 0 15 -2 15 -3z m-683 -26 c-3 -8
-6 -5 -6 6 -1 11 2 17 5 13 3 -3 4 -12 1 -19z m480 -50 c-3 -8 -6 -5 -6 6 -1
11 2 17 5 13 3 -3 4 -12 1 -19z m38 2 c0 -7 -6 -14 -13 -16 -7 -1 -8 0 -2 3 7
3 7 10 -2 21 -11 13 -11 14 2 10 8 -2 15 -11 15 -18z m205 0 c0 -5 -4 -10 -10
-10 -5 0 -10 5 -10 10 0 6 5 10 10 10 6 0 10 -4 10 -10z m-680 -24 c0 -3 -4
-8 -10 -11 -5 -3 -10 -1 -10 4 0 6 5 11 10 11 6 0 10 -2 10 -4z"/>
<path d="M3960 2798 c0 -3 14 -39 30 -79 40 -99 52 -178 40 -270 -11 -89 -43
-197 -68 -230 -10 -13 -31 -49 -46 -79 -35 -68 -30 -64 -56 -50 -35 19 -133
14 -178 -9 -42 -21 -83 -64 -108 -112 -13 -27 -13 -30 3 -36 9 -4 18 -2 21 5
2 6 17 29 33 52 76 104 223 104 298 -1 43 -58 44 -138 4 -210 -24 -42 -26 -51
-13 -59 16 -10 39 18 65 79 30 68 13 175 -36 227 l-20 21 35 69 c105 207 134
443 71 582 -22 50 -75 120 -75 100z"/>
<path d="M2091 2052 c-1 -101 17 -207 54 -311 12 -36 25 -77 29 -91 3 -14 26
-57 50 -95 38 -59 44 -76 40 -105 -12 -83 83 -180 161 -166 51 10 78 50 73
107 -8 81 -71 139 -151 139 -33 0 -38 5 -77 68 -23 37 -48 72 -54 77 -32 27
-83 202 -93 322 -3 43 -12 94 -19 113 -12 33 -13 29 -13 -58z m329 -599 c40
-36 44 -87 10 -115 -29 -23 -40 -23 -81 5 -43 29 -58 76 -35 112 23 34 66 33
106 -2z"/>
<path d="M3228 2100 c-7 -11 -18 -20 -25 -20 -6 0 -14 -4 -17 -9 -4 -5 27 -7
72 -3 42 3 93 4 112 4 40 -2 100 15 100 28 0 5 -15 3 -34 -5 -23 -10 -43 -12
-58 -6 -14 5 -30 4 -42 -3 -14 -8 -20 -8 -23 1 -3 8 -12 7 -33 -5 -16 -9 -32
-13 -37 -9 -4 5 0 13 10 18 9 6 17 14 17 19 0 18 -30 10 -42 -10z"/>
<path d="M3232 1388 c-20 -20 -14 -44 13 -56 57 -26 84 1 45 44 -26 27 -40 30
-58 12z"/>
<path d="M3514 1206 c-3 -8 0 -24 6 -36 15 -27 63 -24 69 4 6 35 -63 64 -75
32z"/>
</g>
</svg>
